<svg version="1.1" id="Слой_1" xmlns="http://www.w3.org/2000/svg" xmlns:xlink="http://www.w3.org/1999/xlink" x="0" y="0" viewBox="0 0 1920 734" xml:space="preserve"><defs><path id="SVGID_1_" d="M-1 9h1921v725H-1z"/></defs><clipPath id="SVGID_2_"><use xlink:href="#SVGID_1_" overflow="visible"/></clipPath><path d="M-40.1 169C-8.3 145.4 515.3-32.8 852.1 46.5c427.6 100.7 866.7 417.5 1070.3 315.9 142.9-71.4 151.6 700.5 23.3 845.4-173.5 195.9-1786.6 92.2-1897.9-19.6C-114.3 1025.2-263 334.5-40.1 169z" clip-path="url(#SVGID_2_)" fill="#e8f1fa"/><path d="M-9 158.7c33.1-21.9 565.6-171.3 897.6-73.8 421.5 123.8 842.7 464.1 1051.6 373.6 146.6-63.5 113.3 707.7-22.7 845.4-183.9 186.2-1828.3 27.4-1933.3-90.3C-168.9 1042-240.5 311.8-9 158.7z" clip-path="url(#SVGID_2_)" fill="#f4f9fe"/></svg>