<svg version="1.1" id="Слой_2" xmlns="http://www.w3.org/2000/svg" x="0" y="0" viewBox="0 0 2000 1240" xml:space="preserve"><style>.st0{fill:#f4f7fc}.st1{fill:#5f7ceb}.st2{fill:#edc04d}.st7{fill:none;stroke:#c6017c;stroke-width:8;stroke-linecap:round;stroke-miterlimit:10}.st9{fill:#f1f1fa}.st10{fill:#78d0be}</style><path class="st0" d="M1176.2 652.3L653.8 716c-13.5 1.6-25.9-8.1-27.6-21.6-1.6-13.5 8.1-25.9 21.6-27.6l522.4-63.7c13.5-1.6 25.9 8.1 27.6 21.6 1.6 13.5-8.1 25.9-21.6 27.6zm106.2-196.6l-507 61.9c-13.5 1.6-25.9-8.1-27.6-21.6-1.6-13.5 8.1-25.9 21.6-27.6l507-61.9c13.5-1.6 25.9 8.1 27.6 21.6 1.6 13.6-8.1 26-21.6 27.6zm13.8 92.1L761.5 613c-13.5 1.6-25.9-8.1-27.6-21.6-1.6-13.5 8.1-25.9 21.6-27.6l534.7-65.2c13.5-1.6 25.9 8.1 27.6 21.6 1.7 13.6-8 26-21.6 27.6zM1158 755.9l-504 61.5c-13.5 1.6-25.9-8.1-27.6-21.6-1.6-13.5 8.1-25.9 21.6-27.6l504-61.5c13.5-1.6 25.9 8.1 27.6 21.6 1.6 13.5-8.1 25.9-21.6 27.6z"/><path class="st0" d="M1013.5 697.6v-1.9c0-13.2 9.8-24.7 22.9-26.3v-9.8l-243.3 32.8v6.4c11.1 1.3 20.4 10.4 21.8 22.4v.3c1.6 14-8.1 27.3-21.6 29l-.3 6 243.3-9v-26.7c-11.5-.8-21.3-11.3-22.8-23.2zM1155 533.3l-2.2-17.9c-.8.1-1.5.1-2.3.1-12.1 0-21.9-9.8-21.9-21.9 0-11 8.2-20.2 18.8-21.7l-.7-5.4-259.1 25.1-.9 12.3c11.3 1.1 20.2 10.7 20.2 22.3 0 12.4-10 22.4-22.4 22.4h-1l-.5 7.5 272-22.8zm-43.1 36.8v-4.6l-280.8 39.1c9.6 1.6 16.9 9.9 16.9 19.9 0 10.1-7.5 18.5-17.2 20v3.9l281.1-31v-7.1c-10.6-.6-19-9.4-19-20.2 0-10.6 8.4-19.4 19-20z"/><path class="st1" d="M771.2 440c0 3.3 2.7 6 6 6s6-2.7 6-6-2.7-6-6-6c-3.3-.1-6 2.6-6 6zm424.9 149c0 3.3 2.7 6 6 6s6-2.7 6-6-2.7-6-6-6-6 2.7-6 6z"/><path class="st2" d="M1217.8 714.9c0 3.3 2.7 6 6 6s6-2.7 6-6-2.7-6-6-6c-3.3-.1-6 2.6-6 6zm-442.5-70.5c0 3.3 2.7 6 6 6s6-2.7 6-6-2.7-6-6-6-6 2.7-6 6zm597.5 28.5c0 3.3 2.7 6 6 6s6-2.7 6-6-2.7-6-6-6c-3.3-.1-6 2.6-6 6zM969.3 420.3c.3 0 .6-.1.8-.3.4-.4.4-1.2 0-1.6l-9-9c-.4-.4-1.2-.4-1.6 0-.4.4-.4 1.2 0 1.6l9 9c.3.2.6.3.8.3z"/><path class="st2" d="M960.4 420.3c.3 0 .6-.1.8-.3l9-9c.4-.4.4-1.2 0-1.6-.4-.4-1.2-.4-1.6 0l-9 9c-.4.4-.4 1.2 0 1.6.2.2.5.3.8.3z"/><path class="st1" d="M990.3 862.4c.3 0 .6-.1.8-.3.4-.4.4-1.2 0-1.6l-9-9c-.4-.4-1.2-.4-1.6 0-.4.4-.4 1.2 0 1.6l9 9c.2.2.5.3.8.3z"/><path class="st1" d="M981.3 862.4c.3 0 .6-.1.8-.3l9-9c.4-.4.4-1.2 0-1.6-.4-.4-1.2-.4-1.6 0l-9 9c-.4.4-.4 1.2 0 1.6.2.2.5.3.8.3z"/><path d="M1415.8 563.9c0 3.3 2.7 6 6 6s6-2.7 6-6-2.7-6-6-6c-3.3-.1-6 2.6-6 6z" fill="#f2f2fb"/><path class="st7" d="M1512.9 365.4c2.1-6.1 3.5-6.2 5.6-6.5 3.5-.6 6 3.5 9.6 2.9 4.5-.8 3.8-9.3 9.4-11.6 4.7-1.9 7.6 3.1 12.3 1.4 6.2-2.2 2.9-10.5 8.7-13 2.5-1.1 5-2.3 10.5.9"/><path d="M1091.5 931l-8.8 4.2c-.6.3-1.2.2-1.7-.2l-7.3-5.4c-1.2-.9-2.9.1-2.6 1.6l1.4 9c.1.6-.2 1.2-.7 1.6l-7.8 5.8c-1.2.9-.7 2.7.7 3l9.5 1.7c.6.1 1.1.5 1.3 1.1l2.7 8.8c.4 1.4 2.3 1.6 3.1.3l4.5-8.2c.3-.5.8-.9 1.4-.9l9.3-.1c1.5 0 2.2-1.8 1.2-2.8l-6.5-6.6c-.4-.5-.6-1.1-.4-1.7l3-9.2c.4-1.4-1-2.6-2.3-2z" fill="#edbe3e"/><path class="st9" d="M880.1 254.3l-8.8 4.2c-.6.3-1.2.2-1.7-.2l-7.3-5.4c-1.2-.9-2.9.1-2.6 1.6l1.4 9c.1.6-.2 1.2-.7 1.6l-7.8 5.8c-1.2.9-.7 2.7.7 3l9.5 1.7c.6.1 1.1.5 1.3 1.1l2.7 8.8c.4 1.4 2.3 1.6 3.1.3l4.5-8.2c.3-.5.8-.9 1.4-.9l9.3-.1c1.5 0 2.2-1.8 1.2-2.8l-6.5-6.6c-.4-.5-.6-1.1-.4-1.7l3-9.2c.5-1.4-1-2.6-2.3-2z"/><path class="st10" d="M1236.7 304.8l-18.9-19.6c-2-2.1-1.8-5.3.4-7.1 2.2-1.8 5.7-1.6 7.7.5l18.9 19.6c2 2.1 1.8 5.3-.4 7.1-2.3 1.8-5.7 1.6-7.7-.5z"/><path class="st10" d="M1244.8 285.3l-19.1 19.1c-2 2-5.5 2.2-7.7.5-2.2-1.8-2.3-4.9-.3-6.9l19.1-19.1c2-2 5.5-2.2 7.7-.5 2.1 1.8 2.3 4.9.3 6.9z"/><path d="M1355.3 783c6.6-2.7 12.9 1.4 15.6 7.4 3.6 8-.9 22.7 18.8 21.3M610.3 583.4c-2.2-6.8 2.4-12.8 8.6-15 8.2-3 22.6 2.6 22.7-17.2" fill="none" stroke="#5874e7" stroke-width="8" stroke-linecap="round" stroke-miterlimit="10"/><circle class="st7" cx="699.4" cy="960.1" r="10.3"/><path class="st9" d="M1415.1 430.3l-8.8 4.2c-.6.3-1.2.2-1.7-.2l-7.3-5.4c-1.2-.9-2.9.1-2.6 1.6l1.4 9c.1.6-.2 1.2-.7 1.6l-7.8 5.8c-1.2.9-.7 2.7.7 3l9.5 1.7c.6.1 1.1.5 1.3 1.1l2.7 8.8c.4 1.4 2.3 1.6 3.1.3l4.5-8.2c.3-.5.8-.9 1.4-.9l9.3-.1c1.5 0 2.2-1.8 1.2-2.8l-6.5-6.6c-.4-.5-.6-1.1-.4-1.7l3-9.2c.5-1.4-1-2.6-2.3-2z"/></svg>