<?xml version="1.0" encoding="utf-8"?>
<!-- Generator: Adobe Illustrator 22.0.1, SVG Export Plug-In . SVG Version: 6.00 Build 0)  -->
<svg version="1.1" id="Слой_2" xmlns="http://www.w3.org/2000/svg" xmlns:xlink="http://www.w3.org/1999/xlink" x="0px" y="0px"
	 viewBox="0 0 2000 1240" style="enable-background:new 0 0 2000 1240;" xml:space="preserve">
<style type="text/css">
	.st0{fill:#F4F7FC;}
	.st1{fill:#5F7CEB;}
	.st2{fill:#EDC04D;}
	.st3{fill:#F2F2FB;}
	.st4{opacity:0;}
	.st5{fill:none;stroke:#4F7DF0;stroke-width:8;stroke-linecap:round;stroke-miterlimit:10;}
	.st6{fill:#4F7DF0;}
	.st7{fill:none;stroke:#C6017C;stroke-width:8;stroke-linecap:round;stroke-miterlimit:10;}
	.st8{fill:#EDBE3E;}
	.st9{fill:#F1F1FA;}
	.st10{fill:#78D0BE;}
	.st11{fill:none;stroke:#5874E7;stroke-width:8;stroke-linecap:round;stroke-miterlimit:10;}
</style>
<path class="st0" d="M1176.2,652.3L653.8,716c-13.5,1.6-25.9-8.1-27.6-21.6v0c-1.6-13.5,8.1-25.9,21.6-27.6l522.4-63.7
	c13.5-1.6,25.9,8.1,27.6,21.6v0C1199.4,638.2,1189.7,650.6,1176.2,652.3z"/>
<path class="st0" d="M1282.4,455.7l-507,61.9c-13.5,1.6-25.9-8.1-27.6-21.6v0c-1.6-13.5,8.1-25.9,21.6-27.6l507-61.9
	c13.5-1.6,25.9,8.1,27.6,21.6v0C1305.6,441.7,1295.9,454.1,1282.4,455.7z"/>
<path class="st0" d="M1296.2,547.8l-534.7,65.2c-13.5,1.6-25.9-8.1-27.6-21.6v0c-1.6-13.5,8.1-25.9,21.6-27.6l534.7-65.2
	c13.5-1.6,25.9,8.1,27.6,21.6v0C1319.5,533.8,1309.8,546.2,1296.2,547.8z"/>
<path class="st0" d="M1158,755.9l-504,61.5c-13.5,1.6-25.9-8.1-27.6-21.6l0,0c-1.6-13.5,8.1-25.9,21.6-27.6l504-61.5
	c13.5-1.6,25.9,8.1,27.6,21.6v0C1181.2,741.8,1171.5,754.2,1158,755.9z"/>
<g>
	<path class="st0" d="M1013.5,697.6v-1.9c0-13.2,9.8-24.7,22.9-26.3v-9.8l-243.3,32.8v6.4c11.1,1.3,20.4,10.4,21.8,22.4l0,0.3
		c1.6,14-8.1,27.3-21.6,29l-0.3,6l243.3-9v-26.7C1024.8,720,1015,709.5,1013.5,697.6z"/>
</g>
<g>
	<path class="st0" d="M1155,533.3l-2.2-17.9c-0.8,0.1-1.5,0.1-2.3,0.1c-12.1,0-21.9-9.8-21.9-21.9c0-11,8.2-20.2,18.8-21.7l-0.7-5.4
		l-259.1,25.1l-0.9,12.3c11.3,1.1,20.2,10.7,20.2,22.3c0,12.4-10,22.4-22.4,22.4c-0.3,0-0.7,0-1,0l-0.5,7.5L1155,533.3z"/>
</g>
<g>
	<g>
		<path class="st0" d="M1111.9,570.1v-4.6l-280.8,39.1c9.6,1.6,16.9,9.9,16.9,19.9c0,10.1-7.5,18.5-17.2,20v3.9l281.1-31v-7.1
			c-10.6-0.6-19-9.4-19-20.2C1092.9,579.5,1101.3,570.7,1111.9,570.1z"/>
	</g>
</g>
<g>
	<path class="st1" d="M771.2,440c0,3.3,2.7,6,6,6c3.3,0,6-2.7,6-6c0-3.3-2.7-6-6-6C773.9,433.9,771.2,436.6,771.2,440z"/>
	<path class="st1" d="M1196.1,589c0,3.3,2.7,6,6,6c3.3,0,6-2.7,6-6c0-3.3-2.7-6-6-6C1198.8,583,1196.1,585.7,1196.1,589z"/>
	<path class="st2" d="M1217.8,714.9c0,3.3,2.7,6,6,6c3.3,0,6-2.7,6-6c0-3.3-2.7-6-6-6C1220.5,708.8,1217.8,711.5,1217.8,714.9z"/>
	<path class="st2" d="M775.3,644.4c0,3.3,2.7,6,6,6c3.3,0,6-2.7,6-6c0-3.3-2.7-6-6-6C778,638.4,775.3,641.1,775.3,644.4z"/>
	<path class="st2" d="M1372.8,672.9c0,3.3,2.7,6,6,6c3.3,0,6-2.7,6-6c0-3.3-2.7-6-6-6C1375.5,666.8,1372.8,669.5,1372.8,672.9z"/>
	<g>
		<g>
			<path class="st2" d="M969.3,420.3c0.3,0,0.6-0.1,0.8-0.3c0.4-0.4,0.4-1.2,0-1.6l-9-9c-0.4-0.4-1.2-0.4-1.6,0
				c-0.4,0.4-0.4,1.2,0,1.6l9,9C968.8,420.2,969.1,420.3,969.3,420.3z"/>
			<path class="st2" d="M960.4,420.3c0.3,0,0.6-0.1,0.8-0.3l9-9c0.4-0.4,0.4-1.2,0-1.6c-0.4-0.4-1.2-0.4-1.6,0l-9,9
				c-0.4,0.4-0.4,1.2,0,1.6C959.8,420.2,960.1,420.3,960.4,420.3z"/>
		</g>
	</g>
	<g>
		<path class="st1" d="M990.3,862.4c0.3,0,0.6-0.1,0.8-0.3c0.4-0.4,0.4-1.2,0-1.6l-9-9c-0.4-0.4-1.2-0.4-1.6,0
			c-0.4,0.4-0.4,1.2,0,1.6l9,9C989.7,862.3,990,862.4,990.3,862.4z"/>
		<path class="st1" d="M981.3,862.4c0.3,0,0.6-0.1,0.8-0.3l9-9c0.4-0.4,0.4-1.2,0-1.6c-0.4-0.4-1.2-0.4-1.6,0l-9,9
			c-0.4,0.4-0.4,1.2,0,1.6C980.7,862.3,981,862.4,981.3,862.4z"/>
	</g>
</g>
<path class="st3" d="M1415.8,563.9c0,3.3,2.7,6,6,6c3.3,0,6-2.7,6-6c0-3.3-2.7-6-6-6C1418.5,557.8,1415.8,560.5,1415.8,563.9z"/>
<g>
	<g class="st4">
		<path class="st5" d="M1512.9,365.4c2.1-6.1,3.5-6.2,5.6-6.5c3.5-0.6,6,3.5,9.6,2.9c4.5-0.8,3.8-9.3,9.4-11.6
			c4.7-1.9,7.6,3.1,12.3,1.4c6.2-2.2,2.9-10.5,8.7-13c2.5-1.1,5-2.3,10.5,0.9"/>
		<path class="st6" d="M1091.5,931l-8.8,4.2c-0.6,0.3-1.2,0.2-1.7-0.2l-7.3-5.4c-1.2-0.9-2.9,0.1-2.6,1.6l1.4,9
			c0.1,0.6-0.2,1.2-0.7,1.6l-7.8,5.8c-1.2,0.9-0.7,2.7,0.7,3l9.5,1.7c0.6,0.1,1.1,0.5,1.3,1.1l2.7,8.8c0.4,1.4,2.3,1.6,3.1,0.3
			l4.5-8.2c0.3-0.5,0.8-0.9,1.4-0.9l9.3-0.1c1.5,0,2.2-1.8,1.2-2.8l-6.5-6.6c-0.4-0.5-0.6-1.1-0.4-1.7l3-9.2
			C1094.2,931.6,1092.8,930.4,1091.5,931z"/>
		<path class="st6" d="M880.1,254.3l-8.8,4.2c-0.6,0.3-1.2,0.2-1.7-0.2l-7.3-5.4c-1.2-0.9-2.9,0.1-2.6,1.6l1.4,9
			c0.1,0.6-0.2,1.2-0.7,1.6l-7.8,5.8c-1.2,0.9-0.7,2.7,0.7,3l9.5,1.7c0.6,0.1,1.1,0.5,1.3,1.1l2.7,8.8c0.4,1.4,2.3,1.6,3.1,0.3
			l4.5-8.2c0.3-0.5,0.8-0.9,1.4-0.9l9.3-0.1c1.5,0,2.2-1.8,1.2-2.8l-6.5-6.6c-0.4-0.5-0.6-1.1-0.4-1.7l3-9.2
			C882.9,254.9,881.4,253.7,880.1,254.3z"/>
		<path class="st6" d="M1236.7,304.8l-18.9-19.6c-2-2.1-1.8-5.3,0.4-7.1l0,0c2.2-1.8,5.7-1.6,7.7,0.5l18.9,19.6
			c2,2.1,1.8,5.3-0.4,7.1l0,0C1242.1,307.1,1238.7,306.9,1236.7,304.8z"/>
		<path class="st6" d="M1244.8,285.3l-19.1,19.1c-2,2-5.5,2.2-7.7,0.5v0c-2.2-1.8-2.3-4.9-0.3-6.9l19.1-19.1c2-2,5.5-2.2,7.7-0.5v0
			C1246.6,280.2,1246.8,283.3,1244.8,285.3z"/>
		<path class="st5" d="M1355.3,783c6.6-2.7,12.9,1.4,15.6,7.4c3.6,8-0.9,22.7,18.8,21.3"/>
		<path class="st5" d="M610.3,583.4c-2.2-6.8,2.4-12.8,8.6-15c8.2-3,22.6,2.6,22.7-17.2"/>
		<circle class="st5" cx="699.4" cy="960.1" r="10.3"/>
		<path class="st6" d="M1415.1,430.3l-8.8,4.2c-0.6,0.3-1.2,0.2-1.7-0.2l-7.3-5.4c-1.2-0.9-2.9,0.1-2.6,1.6l1.4,9
			c0.1,0.6-0.2,1.2-0.7,1.6l-7.8,5.8c-1.2,0.9-0.7,2.7,0.7,3l9.5,1.7c0.6,0.1,1.1,0.5,1.3,1.1l2.7,8.8c0.4,1.4,2.3,1.6,3.1,0.3
			l4.5-8.2c0.3-0.5,0.8-0.9,1.4-0.9l9.3-0.1c1.5,0,2.2-1.8,1.2-2.8l-6.5-6.6c-0.4-0.5-0.6-1.1-0.4-1.7l3-9.2
			C1417.9,430.9,1416.4,429.7,1415.1,430.3z"/>
	</g>
	<g>
		<g>
			<g>
				<g>
					<path class="st7" d="M1512.9,365.4c2.1-6.1,3.5-6.2,5.6-6.5c3.5-0.6,6,3.5,9.6,2.9c4.5-0.8,3.8-9.3,9.4-11.6
						c4.7-1.9,7.6,3.1,12.3,1.4c6.2-2.2,2.9-10.5,8.7-13c2.5-1.1,5-2.3,10.5,0.9"/>
				</g>
			</g>
			<g>
				<path class="st8" d="M1091.5,931l-8.8,4.2c-0.6,0.3-1.2,0.2-1.7-0.2l-7.3-5.4c-1.2-0.9-2.9,0.1-2.6,1.6l1.4,9
					c0.1,0.6-0.2,1.2-0.7,1.6l-7.8,5.8c-1.2,0.9-0.7,2.7,0.7,3l9.5,1.7c0.6,0.1,1.1,0.5,1.3,1.1l2.7,8.8c0.4,1.4,2.3,1.6,3.1,0.3
					l4.5-8.2c0.3-0.5,0.8-0.9,1.4-0.9l9.3-0.1c1.5,0,2.2-1.8,1.2-2.8l-6.5-6.6c-0.4-0.5-0.6-1.1-0.4-1.7l3-9.2
					C1094.2,931.6,1092.8,930.4,1091.5,931z"/>
			</g>
			<g>
				<g>
					<path class="st9" d="M880.1,254.3l-8.8,4.2c-0.6,0.3-1.2,0.2-1.7-0.2l-7.3-5.4c-1.2-0.9-2.9,0.1-2.6,1.6l1.4,9
						c0.1,0.6-0.2,1.2-0.7,1.6l-7.8,5.8c-1.2,0.9-0.7,2.7,0.7,3l9.5,1.7c0.6,0.1,1.1,0.5,1.3,1.1l2.7,8.8c0.4,1.4,2.3,1.6,3.1,0.3
						l4.5-8.2c0.3-0.5,0.8-0.9,1.4-0.9l9.3-0.1c1.5,0,2.2-1.8,1.2-2.8l-6.5-6.6c-0.4-0.5-0.6-1.1-0.4-1.7l3-9.2
						C882.9,254.9,881.4,253.7,880.1,254.3z"/>
				</g>
			</g>
			<g>
				<path class="st10" d="M1236.7,304.8l-18.9-19.6c-2-2.1-1.8-5.3,0.4-7.1l0,0c2.2-1.8,5.7-1.6,7.7,0.5l18.9,19.6
					c2,2.1,1.8,5.3-0.4,7.1l0,0C1242.1,307.1,1238.7,306.9,1236.7,304.8z"/>
				<path class="st10" d="M1244.8,285.3l-19.1,19.1c-2,2-5.5,2.2-7.7,0.5v0c-2.2-1.8-2.3-4.9-0.3-6.9l19.1-19.1c2-2,5.5-2.2,7.7-0.5
					v0C1246.6,280.2,1246.8,283.3,1244.8,285.3z"/>
			</g>
			<path class="st11" d="M1355.3,783c6.6-2.7,12.9,1.4,15.6,7.4c3.6,8-0.9,22.7,18.8,21.3"/>
			<path class="st11" d="M610.3,583.4c-2.2-6.8,2.4-12.8,8.6-15c8.2-3,22.6,2.6,22.7-17.2"/>
			<circle class="st7" cx="699.4" cy="960.1" r="10.3"/>
			<g>
				<g>
					<path class="st9" d="M1415.1,430.3l-8.8,4.2c-0.6,0.3-1.2,0.2-1.7-0.2l-7.3-5.4c-1.2-0.9-2.9,0.1-2.6,1.6l1.4,9
						c0.1,0.6-0.2,1.2-0.7,1.6l-7.8,5.8c-1.2,0.9-0.7,2.7,0.7,3l9.5,1.7c0.6,0.1,1.1,0.5,1.3,1.1l2.7,8.8c0.4,1.4,2.3,1.6,3.1,0.3
						l4.5-8.2c0.3-0.5,0.8-0.9,1.4-0.9l9.3-0.1c1.5,0,2.2-1.8,1.2-2.8l-6.5-6.6c-0.4-0.5-0.6-1.1-0.4-1.7l3-9.2
						C1417.9,430.9,1416.4,429.7,1415.1,430.3z"/>
				</g>
			</g>
		</g>
	</g>
</g>
</svg>
