<?xml version="1.0" encoding="utf-8"?>
<!-- Generator: Adobe Illustrator 22.0.1, SVG Export Plug-In . SVG Version: 6.00 Build 0)  -->
<svg version="1.1" id="Layer_1" xmlns="http://www.w3.org/2000/svg" xmlns:xlink="http://www.w3.org/1999/xlink" x="0px" y="0px"
	 viewBox="0 0 168 110" style="enable-background:new 0 0 168 110;" xml:space="preserve">
<style type="text/css">
	.st0{fill:url(#SVGID_1_);}
	.st1{fill:#FFFFFF;}
</style>
<linearGradient id="SVGID_1_" gradientUnits="userSpaceOnUse" x1="93.3218" y1="91.6293" x2="67.5076" y2="20.7056">
	<stop  offset="0" style="stop-color:#DE47EC"/>
	<stop  offset="0.1647" style="stop-color:#D550ED"/>
	<stop  offset="0.4389" style="stop-color:#BB67F0"/>
	<stop  offset="0.7864" style="stop-color:#928DF5"/>
	<stop  offset="1" style="stop-color:#75A8F9"/>
</linearGradient>
<path class="st0" d="M100.5,88.3H60.3c-6.6,0-12-5.4-12-12V36.1c0-6.6,5.4-12,12-12h40.2c6.6,0,12,5.4,12,12v40.2
	C112.5,82.9,107.1,88.3,100.5,88.3z"/>
<g>
	<path class="st1" d="M99.6,55.2c-0.1-2,0-4,0-6c0-1.3,0-2.6,0-3.8c-0.1-1,0.1-2.3-0.2-3.3c-0.3-1-1-1-2-1.1c-2.4-0.1-4.8,0-7.2,0
		c-5.3,0-10.6-0.1-16-0.1c-2.8,0-5.6,0.1-8.4,0.3c-1,0.1-2.7-0.1-3.5,0.6c-0.5,0.5-0.6,1.2-0.7,1.9c-0.3,1.5-0.3,3-0.4,4.5
		c-0.1,3.2-0.1,6.5-0.3,9.7c-0.2,2.6-0.1,5.2,0,7.9c0,1.5-0.4,3.8,0.8,5c1.3,1.1,4,0.6,5.5,0.7c2.8,0.1,5.6,0.2,8.4,0.2
		c5.3,0.1,10.5-0.1,15.8,0.1c2,0.1,4.2,0,6.2-0.3c1.2-0.2,1.5-0.9,1.7-2C100.1,64.5,99.8,59.8,99.6,55.2z M64.5,42.3
		c0.5,0,1-0.1,1.5-0.1C68,42.1,70,42,72.1,42c4.4,0,8.8,0,13.2,0c1.9,0,3.8,0,5.7,0c2,0,4.2-0.2,6.2,0c0.9,0.1,1,0.2,1.1,1.1
		c0.2,0.9,0.1,1.9,0.1,2.8c0,0.1,0,0.3,0,0.4c-11.9-0.4-23.9-0.5-35.8-0.1c0-0.7,0.1-1.3,0.2-2C62.9,43,63.2,42.4,64.5,42.3z
		 M98.6,63.9c-0.1,1.6,0,3.2-0.1,4.9c-0.1,1.2-0.6,1.1-1.6,1.3c-1.1,0.2-2.2,0.3-3.3,0.3c-4.1,0.1-8.3-0.1-12.4-0.1
		c-4.9,0-9.8-0.1-14.7-0.3c-1.5,0-3.9,0.2-4-1.8c-0.1-1.1,0-2.2-0.1-3.3c-0.1-2.4-0.1-4.8,0-7.2c0.2-3.5,0.1-7.1,0.3-10.6
		c12-0.4,23.9-0.3,35.9,0.1c0,1.7-0.1,3.3-0.1,5C98.4,56.1,98.7,60,98.6,63.9z"/>
	<path class="st1" d="M65.5,45.5c0.7-0.1,1.5-0.5,1.4-1.3c-0.1-0.7-0.6-1.3-1.4-1.3c-0.7,0-1.3,0.7-1.4,1.4
		C63.9,45.1,64.7,45.6,65.5,45.5z M65,44.3c0.1-0.2,0.2-0.5,0.5-0.5c0.2,0,0.4,0.1,0.5,0.3c0.1,0.4-0.1,0.4-0.4,0.5
		c-0.2,0-0.3,0-0.4,0C64.9,44.5,64.9,44.5,65,44.3z"/>
	<path class="st1" d="M69.2,45.5c0.8,0.1,1.4-0.5,1.5-1.3c0.1-0.8-0.5-1.4-1.3-1.4c-0.7,0-1.5,0.5-1.5,1.2
		C67.8,44.8,68.4,45.4,69.2,45.5z M68.7,44c0.1-0.3,0.4-0.4,0.6-0.4c0.3,0,0.5,0.2,0.4,0.5c0,0.3-0.3,0.6-0.6,0.5
		C68.9,44.6,68.7,44.3,68.7,44z"/>
	<path class="st1" d="M73.2,45.4c0.7,0,1.4-0.7,1.4-1.4c0-0.7-0.7-1.4-1.4-1.4c-0.8,0-1.4,0.7-1.4,1.5C71.6,45,72.4,45.5,73.2,45.4z
		 M73.1,43.5c0.6,0,0.7,0.9,0.1,1c-0.3,0-0.6-0.1-0.7-0.3C72.5,43.9,72.8,43.5,73.1,43.5z"/>
	<path class="st1" d="M75.5,51.1c-1.2-1-2.9-0.2-4,0.6c-2.1,1.4-3.8,3.2-5.7,4.8c-3,2.6,0.6,5.4,2.7,6.9c1.4,1,3.1,2.5,4.8,3
		c1.1,0.3,2.9-0.1,2.9-1.5c0.1-1.4-2.1-2.8-3-3.6c-0.6-0.5-1.2-1-1.8-1.4c-0.3-0.2-0.6-0.4-0.8-0.6c-0.6-0.4-0.8-0.3-0.5-0.9
		C70.9,56.9,78.3,53.4,75.5,51.1z M69,59.4c0.7,0.8,2.1,1.4,2.9,2.1c0.6,0.5,1.2,1.1,1.8,1.7c0.2,0.2,1,0.7,1.1,1
		c0.5,1.7-0.8,1.5-1.7,1.3c0.1-0.1,0.2-0.1,0.2-0.2c0.2-0.1,0.3-0.4,0.2-0.6c-0.1-0.2-0.4-0.3-0.6-0.2c-0.2,0.1-0.3,0.3-0.5,0.4
		c-0.1,0-0.1,0.1-0.1,0.2c-0.2-0.1-0.4-0.2-0.6-0.3c0.1,0,0.1-0.1,0.2-0.1c0.5-0.3,0-1.1-0.4-0.8c-0.2,0.1-0.4,0.3-0.5,0.4
		c-0.2-0.1-0.4-0.3-0.6-0.5c0.1-0.1,0.2-0.1,0.4-0.2c0.5-0.3,0.1-1-0.4-0.8c-0.2,0.1-0.5,0.2-0.7,0.4c-0.1-0.1-0.3-0.2-0.4-0.3
		c0.1,0,0.1-0.1,0.2-0.1c0.5-0.3,0.1-1-0.4-0.8c-0.2,0.1-0.3,0.2-0.5,0.3c-0.2-0.2-0.4-0.3-0.6-0.5c0.1-0.1,0.2-0.2,0.4-0.2
		c0.2-0.1,0.3-0.4,0.2-0.6c-0.1-0.2-0.4-0.3-0.6-0.2c-0.2,0.1-0.4,0.3-0.6,0.4c-0.2-0.1-0.3-0.3-0.5-0.4c0.1-0.1,0.3-0.2,0.4-0.3
		c0.5-0.3,0-1.1-0.4-0.8c-0.2,0.1-0.4,0.2-0.6,0.4c-0.2-0.3-0.4-0.6-0.5-0.9c0.1,0,0.3,0,0.4,0c0.6,0,0.6-0.9,0-0.9
		c-0.2,0-0.3,0-0.5,0c0.1-0.3,0.2-0.5,0.4-0.8c0.2,0.2,0.3,0.3,0.5,0.5c0.2,0.1,0.5,0,0.6-0.2c0.1-0.2,0-0.5-0.2-0.6
		c0.1,0.1-0.1-0.1-0.1-0.1c-0.1-0.1-0.1-0.1-0.2-0.2c0,0-0.1-0.1-0.1-0.1c0.1-0.1,0.3-0.2,0.4-0.4c0.2,0.2,0.3,0.3,0.5,0.5
		c0.1,0.2,0.5,0.2,0.6,0c0.2-0.2,0.1-0.4,0-0.6c-0.1-0.2-0.3-0.3-0.4-0.5c0.2-0.2,0.4-0.4,0.6-0.6c0.2,0.1,0.3,0.3,0.5,0.5
		c0.4,0.4,1-0.2,0.6-0.6c-0.1-0.1-0.3-0.3-0.5-0.4c0.2-0.2,0.5-0.4,0.7-0.6c0.2,0.2,0.3,0.4,0.5,0.5c0.4,0.4,1-0.2,0.6-0.6
		c-0.1-0.2-0.3-0.3-0.4-0.5c0.1-0.1,0.2-0.2,0.3-0.3c0.2-0.1,0.3-0.2,0.5-0.4c0.1,0.1,0.2,0.2,0.2,0.3c0.1,0.2,0.4,0.3,0.6,0.2
		c0.2-0.1,0.3-0.4,0.2-0.6c-0.1-0.1-0.2-0.3-0.3-0.4c0.2-0.1,0.4-0.3,0.6-0.4c0,0,0,0,0,0c0.1,0.1,0.3,0.3,0.4,0.4
		c0.4,0.4,1-0.2,0.6-0.6c-0.1-0.1-0.1-0.1-0.2-0.2c0.5-0.2,1-0.2,1.4,0.5c0.5,0.9,0,1.1-0.6,1.7c-1.5,1.5-3.3,2.5-4.8,4
		C68.8,58.3,68.5,58.8,69,59.4z"/>
	<path class="st1" d="M92.3,53.8c-1.4-1-3.1-2.5-4.8-3c-1.1-0.3-2.9,0.1-2.9,1.5c-0.1,1.4,2.1,2.8,3,3.6c0.6,0.5,1.2,1,1.8,1.4
		c0.3,0.2,0.6,0.4,0.8,0.6c0.6,0.4,0.8,0.3,0.5,0.9c-0.9,1.5-8.3,5-5.5,7.3c1.2,1,2.9,0.2,4-0.6c2.1-1.4,3.8-3.2,5.7-4.8
		C98,58.1,94.4,55.3,92.3,53.8z M94.4,60.1c-1.5,1.2-2.8,2.6-4.3,3.7c-0.7,0.5-1.3,1.1-2,1.5c-0.8,0.4-1.5,0.7-2-0.2
		c-0.2-0.4-0.2-0.6-0.1-0.8c0.2,0.2,0.4,0.3,0.6,0.5c0.2,0.1,0.5,0,0.6-0.2c0.1-0.2,0-0.5-0.2-0.6c-0.2-0.1-0.4-0.3-0.5-0.4
		c0.1-0.1,0.1-0.1,0.2-0.2c0.1-0.1,0.3-0.3,0.4-0.4c0.2,0.2,0.4,0.4,0.6,0.6c0.2,0.2,0.4,0.2,0.6,0c0.2-0.2,0.2-0.5,0-0.6
		c-0.2-0.2-0.3-0.3-0.5-0.5c0.2-0.2,0.4-0.3,0.6-0.5c0.2,0.2,0.4,0.5,0.6,0.7c0.4,0.4,1-0.2,0.6-0.6c-0.2-0.2-0.3-0.4-0.5-0.6
		c0.2-0.1,0.4-0.3,0.5-0.4c0.2,0.2,0.3,0.3,0.5,0.5c0.2,0.2,0.5,0.2,0.6,0c0.2-0.2,0.2-0.4,0-0.6c-0.1-0.1-0.2-0.3-0.4-0.4
		c0.2-0.2,0.5-0.4,0.7-0.6c0.1,0.1,0.2,0.2,0.3,0.3c0.4,0.4,1-0.2,0.6-0.6c-0.1-0.1-0.2-0.2-0.3-0.3c0.2-0.2,0.3-0.4,0.3-0.5
		c0.2,0,0.4,0,0.5,0c0.2,0,0.4-0.2,0.4-0.4c0-0.3-0.2-0.4-0.4-0.4c-0.3,0-0.5,0-0.8,0c0,0,0,0,0,0c-0.1-0.1-0.3-0.3-0.4-0.4
		c0.1-0.1,0.3-0.1,0.4-0.2c0.2-0.1,0.3-0.4,0.2-0.6c-0.1-0.2-0.4-0.3-0.6-0.2c-0.3,0.1-0.5,0.3-0.8,0.4c-0.1-0.1-0.3-0.2-0.4-0.3
		c0.1-0.1,0.2-0.1,0.4-0.2c0.2-0.1,0.3-0.4,0.2-0.6c-0.1-0.2-0.4-0.3-0.6-0.2c-0.2,0.1-0.5,0.2-0.7,0.4c0,0,0,0-0.1,0
		c-0.1-0.1-0.3-0.2-0.4-0.3c-0.1,0-0.1-0.1-0.2-0.1c0.2-0.1,0.3-0.2,0.5-0.3c0.2-0.1,0.3-0.4,0.2-0.6c-0.1-0.2-0.4-0.3-0.6-0.2
		c-0.3,0.1-0.5,0.3-0.8,0.4c-0.2-0.2-0.3-0.3-0.5-0.5c0.1-0.1,0.2-0.1,0.3-0.2c0.2-0.1,0.4-0.3,0.3-0.5c-0.1-0.2-0.3-0.4-0.5-0.3
		c-0.3,0.1-0.5,0.2-0.7,0.4c-0.1-0.1-0.3-0.2-0.4-0.3c0.1-0.1,0.2-0.2,0.4-0.2c0.5-0.3,0.1-1-0.4-0.8c-0.2,0.1-0.3,0.2-0.4,0.3
		c-0.4-1.6,1.1-1.4,1.8-1.1c1.6,0.6,3.1,1.9,4.4,2.9C93.6,55.9,96.8,58,94.4,60.1z"/>
	<path class="st1" d="M81.5,50.6c-1.3,0-1.7,1.1-2,2.2c-0.8,2.4-1.4,4.9-1.9,7.4c-0.2,1.3-1.9,6.9,1.1,6.5c1.2-0.1,1.9-1.4,2.3-2.3
		c0.8-2.1,1.2-4.4,1.6-6.5c0.2-1.1,0.4-2.1,0.6-3.2c0.1-0.7,0.5-1.7,0.4-2.4C83.5,51.1,82.6,50.6,81.5,50.6z M81.5,58.8
		c-0.2,1-0.5,1.9-0.7,2.9c-0.3,1.2-0.6,3.6-2.1,3.6c-0.8,0-0.9-0.1-0.8-0.6c0.1,0,0.2,0.1,0.3,0.1c0.2,0.1,0.5-0.1,0.5-0.3
		c0.1-0.2-0.1-0.5-0.3-0.5c-0.2-0.1-0.3-0.1-0.5-0.1c0-0.2,0-0.3,0.1-0.5c0.2,0,0.4,0.1,0.6,0.1c0.6,0,0.6-0.9,0-0.9
		c-0.2,0-0.3,0-0.5-0.1c0-0.1,0-0.2,0-0.3c0,0,0-0.1,0-0.1c0.2,0,0.4,0.1,0.6,0.1c0.6,0.1,0.8-0.7,0.2-0.9c-0.2-0.1-0.4-0.1-0.7-0.1
		c0-0.3,0.1-0.5,0.1-0.8c0.3,0,0.5,0.1,0.7,0.2c0.2,0.1,0.5-0.1,0.5-0.3c0.1-0.2-0.1-0.5-0.3-0.5c-0.3-0.1-0.5-0.2-0.8-0.2
		c0-0.2,0.1-0.4,0.1-0.6c0.2,0,0.4,0.1,0.6,0.1c0.6,0.1,0.8-0.7,0.2-0.9c-0.2-0.1-0.4-0.1-0.7-0.2c0-0.2,0.1-0.4,0.1-0.6
		c0.1,0,0.3,0.1,0.4,0.1c0.6,0.1,0.8-0.7,0.2-0.9c-0.2,0-0.3-0.1-0.5-0.1c0-0.1,0-0.2,0.1-0.3c0.2,0.1,0.5,0.1,0.7,0.2
		c0.2,0,0.5-0.1,0.5-0.3c0.1-0.2-0.1-0.5-0.3-0.5c-0.3-0.1-0.5-0.1-0.8-0.2c0-0.2,0.1-0.4,0.1-0.5c0.2,0,0.3,0.1,0.5,0.1
		c0.5,0.1,0.8-0.7,0.2-0.9c-0.2,0-0.3-0.1-0.5-0.1c0-0.1,0.1-0.2,0.1-0.3c0.2,0,0.3,0.1,0.5,0.1c0.2,0.1,0.5-0.1,0.5-0.3
		c0.1-0.2-0.1-0.5-0.3-0.5c-0.1,0-0.3-0.1-0.4-0.1c0.1-0.1,0.1-0.3,0.2-0.4c0.1,0.1,0.3,0.1,0.4,0.1c0.2,0,0.5-0.1,0.5-0.3
		c0.1-0.2-0.1-0.5-0.3-0.5c-0.1,0-0.1,0-0.1,0c0.2-0.2,0.3-0.2,0.5-0.2C83.6,51.6,81.7,57.8,81.5,58.8z"/>
</g>
</svg>
