<svg xmlns="http://www.w3.org/2000/svg" xmlns:xlink="http://www.w3.org/1999/xlink" viewBox="0 0 450 450"><defs><style>.cls-1{isolation:isolate;}.cls-2{fill:#fff;}.cls-3{fill:url(#Безымянный_градиент_12);}.cls-4{fill:#75a8f9;}.cls-5{fill:#e9007f;}.cls-6{fill:#32b7e0;mix-blend-mode:multiply;}</style><linearGradient id="Безымянный_градиент_12" x1="193.51" y1="140.1" x2="245.95" y2="140.1" gradientUnits="userSpaceOnUse"><stop offset="0" stop-color="#75a8f9"/><stop offset="1" stop-color="#de47ec"/></linearGradient></defs><title>Векторный смарт-объект8</title><g class="cls-1"><g id="Layer_1" data-name="Layer 1"><path class="cls-2" d="M160.76,141.49a.65.65,0,0,1-.1-1.29l36.2-6.11a.65.65,0,1,1,.22,1.28l-36.21,6.11Z"/><path class="cls-2" d="M211.1,197.53a.76.76,0,0,1-.21,0,.65.65,0,0,1-.4-.83L223,161.12a.64.64,0,0,1,.82-.4.65.65,0,0,1,.4.83L211.72,197.1A.66.66,0,0,1,211.1,197.53Z"/><path class="cls-3" d="M246,140.1a26.22,26.22,0,0,1-26.22,26.22,26.79,26.79,0,0,1-4.32-.35,26.19,26.19,0,0,1-21.78-23.4c-.08-.81-.12-1.64-.12-2.47a26.22,26.22,0,0,1,26.22-26.22c.29,0,.59,0,.88,0A26.21,26.21,0,0,1,246,140.1Z"/><path class="cls-4" d="M243.35,162.55a6,6,0,0,1-.82,1,5.58,5.58,0,0,1-1,.82,6,6,0,0,1-7.52-.82l-36.92-36.92a6,6,0,0,1,8.53-8.53L242.53,155A6,6,0,0,1,243.35,162.55Z"/><path class="cls-5" d="M243.35,162.55a6,6,0,0,1-.82,1,5.58,5.58,0,0,1-1,.82l-45.25-45.25a6,6,0,0,1,1.83-1.83Z"/><path class="cls-6" d="M241.79,154.29h0a26.28,26.28,0,0,0,1.92-24.84,43.06,43.06,0,0,1-10.37,16.79c-13.79,13.79-30.69,9.74-35.58,8.17A26.29,26.29,0,0,0,215.41,166a26.79,26.79,0,0,0,4.32.35,26,26,0,0,0,13.37-3.66l.9.9a6,6,0,0,0,7.52.82,5.58,5.58,0,0,0,1-.82,6,6,0,0,0,0-8.52Z"/><path class="cls-2" d="M169.85,182.74a.61.61,0,0,1-.51-.25.64.64,0,0,1,.11-.91l42.29-33.15a.65.65,0,0,1,.91.11.66.66,0,0,1-.11.92L170.25,182.6A.61.61,0,0,1,169.85,182.74Z"/><path class="cls-5" d="M171.92,182.09a2.08,2.08,0,1,1-2.07-2.07A2.08,2.08,0,0,1,171.92,182.09Z"/><circle class="cls-5" cx="159.73" cy="140.84" r="2.08"/><path class="cls-5" d="M212.92,197.45a2.08,2.08,0,1,1-2.08-2.08A2.08,2.08,0,0,1,212.92,197.45Z"/></g></g></svg>