<svg version="1.1" id="Слой_1" xmlns="http://www.w3.org/2000/svg" xmlns:xlink="http://www.w3.org/1999/xlink" x="0" y="0" viewBox="0 0 1920 1080.1" xml:space="preserve"><style>.st3,.st4{clip-path:url(#SVGID_2_);stroke:#fff;stroke-miterlimit:10}.st3{stroke-width:2;fill:none}.st4{fill:#fff}</style><defs><path id="SVGID_1_" d="M-1 0h1921v1057H-1z"/></defs><clipPath id="SVGID_2_"><use xlink:href="#SVGID_1_" overflow="visible"/></clipPath><linearGradient id="SVGID_3_" gradientUnits="userSpaceOnUse" x1="-147.061" y1="379.951" x2="2042.178" y2="379.951"><stop offset="0" stop-color="#fff"/><stop offset=".484" stop-color="#f5f4fd"/><stop offset="1" stop-color="#f1f0fc"/></linearGradient><path d="M-34.1 883c31.8 23.6 555.4 201.8 892.3 122.5 427.6-100.7 866.7-417.5 1070.3-315.9 142.9 71.4 151.6-700.5 23.3-845.4C1778.3-351.7 165.2-248 53.9-136.1-108.3 26.8-257 717.5-34.1 883z" clip-path="url(#SVGID_2_)" fill="url(#SVGID_3_)"/><path d="M-40.1 863c31.8 23.6 555.4 201.8 892.3 122.5 427.6-100.7 866.7-417.5 1070.3-315.9C2065.4 741 1943 0 1943 0S111.3-140.9 0-29c-162.2 163-263 726.5-40.1 892z" clip-path="url(#SVGID_2_)" fill="#9ab7ff"/><linearGradient id="SVGID_4_" gradientUnits="userSpaceOnUse" x1="1295.355" y1="999.071" x2="510.804" y2="-359.812" gradientTransform="matrix(.9988 -.04824 .04824 .9988 -22.33 45.696)"><stop offset="0" stop-color="#75a8f9"/><stop offset=".168" stop-color="#6798f5"/><stop offset=".44" stop-color="#5585f0"/><stop offset=".715" stop-color="#4a79ed"/><stop offset="1" stop-color="#4775ec"/></linearGradient><path d="M-9 861.3c33.1 21.9 565.6 171.3 897.6 73.8 421.5-123.8 842.7-464.1 1051.6-373.6 103.7 44.9 47.9-290.7-1.2-561.5C1918.7-111.9-39-88-29-13-.7 199.1-23.7 851.6-9 861.3z" clip-path="url(#SVGID_2_)" fill="url(#SVGID_4_)"/><circle class="st3" cx="91" cy="633" r="7"/><circle class="st3" cx="1596" cy="233" r="7"/><circle class="st3" cx="1808" cy="189" r="7"/><circle class="st4" cx="1338" cy="572" r="7"/><circle class="st4" cx="1739" cy="408" r="7"/><circle class="st4" cx="117" cy="466" r="7"/><circle class="st4" cx="272" cy="756" r="7"/><circle class="st3" cx="319.5" cy="501.5" r="5.5"/><circle class="st3" cx="427.5" cy="221.5" r="5.5"/><circle class="st3" cx="1057.5" cy="121.5" r="5.5"/></svg>